Love for All and Sharing is the first step to solving all the problems of humanity.

Website I want to share. 
               
   http://www.scenetime.com
 
 
  Credit to EVERYONE for sharing and seeding back
 especially to SCENETIME.COM where i get all my 
 downloads.


 support www.scenetime.com to grow faster.

                             
                                                            
                                                   

.                

[b]Tekken 2010 DVDRip XviD AC3-LEGi0N

[img]http://leetleech.org/images/48874973695367351744.png[/img]
[color=red]General[/color]
Format: AVI
File size: 1.37 GiB
Duration: 1h 27mn
Overall bit rate: 2 241 Kbps
IMDb Rating: 7.5/10   413 votes
Genre:  Action | Adventure | Drama | Fantasy | Sci-Fi
Release 20 March 2010 (Japan)
IMDb Link: http://www.imdb.com/title/tt0411951/
Source: PAL DVDR-RETAiL

[color=red]Video[/color]
Format: MPEG-4 Visual
Format profile : Advanced Simple@L5
Format settings, QPel: No
Format settings, GMC: No warppoints
Format settings, Matrix: Default (H.263)
Muxing mode: Packed bitstream
Codec ID: XVID
Bit rate: 1 783 Kbps
Width: 720 pixels
Height: 400 pixels
Display aspect ratio: 16:9
Frame rate: 25.000 fps
Chroma subsampling: 4:2:0
Bit depth: 8 bits
Scan type: Progressive
Bits/(Pixel*Frame): 0.248
Stream size: 1.09 GiB (80%)

[color=red]Audio[/color]
Format: AC-3
Bit rate mode: Constant
Bit rate: 448 Kbps
Channel(s): 6 channels
Sampling rate: 48.0 KHz
Stream size: 334 MiB (22%)


[img]http://leetleech.org/images/89524873606771859129.png[/img]
A high-octane action movie about a young man who discovers he holds a 
great power and must battle a team of elite fighters who will stop at 
nothing in order to get it from him.

[color=red]Tagline:[color]
N/A

[img]http://leetleech.org/images/84434050717770922575.png[/img]
Gary Daniels	 ...	Bryan Fury
Luke Goss	 ...	Steve Fox
Ian Anthony Dale ...	Kazuya
Cary-Hiroyuki Tagawa...	Heihachi Mishima
Lateef Crowder	 ...	Eddy Gordo
Jon Foo	         ...	Jin Kazama
Kelly Overton	 ...	Christie Monteiro
Mircea Monroe	 ...	Kara
Tamlyn Tomita	 ...	Jun Kazama
Cung Le	         ...	Marshall Law
Candice Hillebrand...	Nina Williams (as Candic Hillebrand)
Marian Zapico	 ...	Anna Williams
Darrin Dewitt Henson...	Raven
Monica Mal	 ...	Hot Girl
Gary Ray Stearns ...	Yoshimitsu
John Pyper-Ferguson...	Bonner (unconfirmed)
Hyun-kyoon Lee	 ...	Hwoarang
David Pitt	 ...	Jack
Louis Herthum	 ...	Tekken Security Chief
Anton Kasabov	 ...	Sergei Dragunov
Louise Griffiths ...	Sapphire
Roger Huerta	 ...	Miguel Caballero Rojo
Randal Reeder	 ...	Scared Fighter
Cassie Shea Watson...	Med Tech
Kiko Ellsworth	 ...	Denslow	
Taiy Sugiura	 ...	Lee Chaolan
Jourdan Lee Khoo ...	Sportscaster
Michael Showers	 ...	Security Assistant #1
Jonathan Kowalsky	 ...	Vosk
Andrew Wei Lin	 ...	Sportscaster
Jevon Miller	 ...	Angry Fighter Reject

[color=red]GREETZ[/color]
Noir | xXTHORNXx | bigimac | LUSi |

kempas | KaN1vE | mike160 | skillz |

Lungbuster | Sheikh |  DiLLoN    |

FLAWL3SS | AND ALL P2P!

[color=red]SAMPLE INCLUDED![/color][/b]

[img]http://leetleech.org/images/95521316153253938506.png[/img]
[img]http://leetleech.org/images/12755021538703799215.png[/img]